<?xml version="1.0" encoding="UTF-8" standalone="no"?>
<!-- Generate more at customizr.net -->

<svg
   xmlns:dc="http://purl.org/dc/elements/1.1/"
   xmlns:cc="http://creativecommons.org/ns#"
   xmlns:rdf="http://www.w3.org/1999/02/22-rdf-syntax-ns#"
   xmlns:svg="http://www.w3.org/2000/svg"
   xmlns="http://www.w3.org/2000/svg"
   xmlns:sodipodi="http://sodipodi.sourceforge.net/DTD/sodipodi-0.dtd"
   xmlns:inkscape="http://www.inkscape.org/namespaces/inkscape"
   id="facebook-square"
   class="custom-icon"
   version="1.1"
   viewBox="0 0 100 100"
   style="height: 100px; width: 100px;"
   inkscape:version="0.48.5 r10040"
   width="100%"
   height="100%"
   sodipodi:docname="facebook-square.svg">
  <metadata
     id="metadata11">
    <rdf:RDF>
      <cc:Work
         rdf:about="">
        <dc:format>image/svg+xml</dc:format>
        <dc:type
           rdf:resource="http://purl.org/dc/dcmitype/StillImage" />
      </cc:Work>
    </rdf:RDF>
  </metadata>
  <defs
     id="defs9" />
  <sodipodi:namedview
     pagecolor="#ffffff"
     bordercolor="#666666"
     borderopacity="1"
     objecttolerance="10"
     gridtolerance="10"
     guidetolerance="10"
     inkscape:pageopacity="0"
     inkscape:pageshadow="2"
     inkscape:window-width="1438"
     inkscape:window-height="864"
     id="namedview7"
     showgrid="false"
     inkscape:zoom="2.36"
     inkscape:cx="50.847458"
     inkscape:cy="50"
     inkscape:window-x="0"
     inkscape:window-y="16"
     inkscape:window-maximized="0"
     inkscape:current-layer="facebook-square" />
  <path
     class="inner-shape"
     style="opacity: 1; fill: rgb(224, 212, 152);"
     transform="translate(25,25) scale(0.5)"
     d="M82.667,1H17.335C8.351,1,1,8.351,1,17.336v65.329c0,8.99,7.351,16.335,16.334,16.335h65.332 C91.652,99.001,99,91.655,99,82.665V17.337C99,8.353,91.652,1.001,82.667,1L82.667,1z M84.318,50H68.375v42.875H50V50h-8.855V35.973 H50v-9.11c0-12.378,5.339-19.739,19.894-19.739h16.772V22.3H72.967c-4.066-0.007-4.57,2.12-4.57,6.078l-0.023,7.594H86.75 l-2.431,14.027V50z"
     id="path5" />
</svg>
