<?xml version="1.0" encoding="UTF-8" standalone="no"?>
<!-- Generate more at customizr.net -->

<svg
   xmlns:dc="http://purl.org/dc/elements/1.1/"
   xmlns:cc="http://creativecommons.org/ns#"
   xmlns:rdf="http://www.w3.org/1999/02/22-rdf-syntax-ns#"
   xmlns:svg="http://www.w3.org/2000/svg"
   xmlns="http://www.w3.org/2000/svg"
   xmlns:sodipodi="http://sodipodi.sourceforge.net/DTD/sodipodi-0.dtd"
   xmlns:inkscape="http://www.inkscape.org/namespaces/inkscape"
   id="linkedin"
   class="custom-icon"
   version="1.1"
   viewBox="0 0 100 100"
   style="height: 100px; width: 100px;"
   inkscape:version="0.48.5 r10040"
   width="100%"
   height="100%"
   sodipodi:docname="linkedin.svg">
  <metadata
     id="metadata3019">
    <rdf:RDF>
      <cc:Work
         rdf:about="">
        <dc:format>image/svg+xml</dc:format>
        <dc:type
           rdf:resource="http://purl.org/dc/dcmitype/StillImage" />
      </cc:Work>
    </rdf:RDF>
  </metadata>
  <defs
     id="defs3017" />
  <sodipodi:namedview
     pagecolor="#ffffff"
     bordercolor="#666666"
     borderopacity="1"
     objecttolerance="10"
     gridtolerance="10"
     guidetolerance="10"
     inkscape:pageopacity="0"
     inkscape:pageshadow="2"
     inkscape:window-width="1438"
     inkscape:window-height="864"
     id="namedview3015"
     showgrid="false"
     inkscape:zoom="2.36"
     inkscape:cx="50.847458"
     inkscape:cy="50"
     inkscape:window-x="0"
     inkscape:window-y="16"
     inkscape:window-maximized="0"
     inkscape:current-layer="linkedin" />
  <path
     class="inner-shape"
     style="opacity: 1; fill: rgb(224, 212, 152);"
     transform="translate(25,25) scale(0.5)"
     d="M82.539,1H17.461C8.408,1,1,8.408,1,17.461v65.078C1,91.592,8.408,99,17.461,99h65.078C91.592,99,99,91.592,99,82.539 V17.461C99,8.408,91.592,1,82.539,1z M37.75,80.625H25.5V37.75h12.25V80.625z M31.625,31.625c-3.383,0-6.125-2.742-6.125-6.125 s2.742-6.125,6.125-6.125s6.125,2.742,6.125,6.125S35.008,31.625,31.625,31.625z M80.625,80.625h-12.25v-24.5 c0-3.383-2.742-6.125-6.125-6.125s-6.125,2.742-6.125,6.125v24.5h-12.25V37.75h12.25v7.606c2.526-3.47,6.389-7.606,10.719-7.606 c7.612,0,13.782,6.856,13.782,15.312L80.625,80.625L80.625,80.625z"
     id="path3013" />
</svg>
